{"glyphs":{":":{"x_min":0,"x_max":245,"ha":245,"o":"m 28 360 q 28 402 53 425 q 78 448 114 448 q 155 448 184 422 q 218 392 218 345 q 218 303 192 280 q 167 258 131 258 q 90 258 61 283 q 28 312 28 360 z m 28 110 q 28 152 53 175 q 78 198 114 198 q 155 198 184 172 q 218 142 218 95 q 218 53 192 30 q 167 8 131 8 q 90 8 61 33 q 28 62 28 110 z"},"$":{"x_min":0,"x_max":350,"ha":350,"o":"m 253 0 l 125 0 l 125 85 l 50 105 l 50 220 q 83 207 103 207 q 129 207 155 230 q 163 240 168 246 q 181 266 181 282 q 181 288 180 290 q 174 317 101 458 q 75 508 75 560 q 75 632 102 678 q 112 693 130 710 l 130 835 l 250 835 l 250 775 l 320 765 l 320 640 q 309 642 295 645 q 280 649 274 649 q 263 649 255 645 q 247 642 235 630 q 222 618 216 603 q 210 588 210 572 q 210 541 238 489 q 264 442 291 394 q 320 335 320 290 q 319 253 314 232 q 299 167 253 130 z"},"?":{"x_min":0,"x_max":460,"ha":460,"o":"m 60 125 q 63 166 95 194 q 127 222 168 222 q 174 222 178 222 q 218 219 247 188 q 275 156 275 114 q 275 108 275 105 q 272 64 240 36 q 208 8 167 8 q 161 8 158 8 q 117 11 88 42 q 60 74 60 116 q 60 122 60 125 z m 230 305 l 230 255 l 105 255 l 105 425 q 130 418 150 418 q 183 418 223 439 q 263 461 279 491 q 295 521 295 565 q 295 615 261 662 q 228 710 195 710 q 184 710 174 710 q 163 710 153 711 q 134 711 120 709 q 107 707 91 700 q 75 694 54 680 q 48 675 35 665 q 35 728 35 750 q 35 773 35 805 q 64 815 82 820 q 141 836 181 836 q 207 836 225 830 q 263 818 302 793 q 352 762 380 721 q 408 680 419 641 q 430 602 430 550 q 430 492 412 451 q 395 410 350 370 q 320 343 293 328 q 267 313 230 305 z"},"'":{"x_min":0,"x_max":350,"ha":350,"o":"m 152 835 l 322 835 l 142 630 l 52 630 z"},"a":{"x_min":0,"x_max":785,"ha":785,"o":"m 534 185 l 534 13 q 457 -24 381 -24 q 264 -24 164 62 q 102 115 74 175 q 47 236 47 320 q 47 458 145 555 q 244 652 382 652 q 522 652 623 556 q 724 461 724 322 l 724 0 l 578 0 l 578 327 q 578 404 519 457 q 460 510 380 510 q 300 510 244 454 q 188 398 188 318 q 188 236 245 177 q 301 118 382 118 q 432 118 467 134 q 502 149 534 185 z"},"L":{"x_min":0,"x_max":520,"ha":520,"o":"m 57 835 l 207 835 l 207 158 l 483 158 l 483 0 l 57 0 z"},"3":{"x_min":0,"x_max":455,"ha":455,"o":"m 30 830 l 430 830 l 290 565 l 347 508 q 387 468 406 419 q 425 369 425 314 q 425 262 410 214 q 396 166 368 122 q 332 63 237 27 q 158 -3 92 -3 q 55 -3 55 8 l 55 163 q 65 162 80 160 q 94 158 110 158 q 147 158 172 165 q 208 176 230 200 q 274 249 274 308 q 274 347 255 380 q 236 414 197 432 q 158 451 117 451 q 82 451 58 437 q 66 459 74 482 q 108 540 143 599 q 185 672 185 688 q 185 695 180 695 l 30 695 z"},";":{"x_min":0,"x_max":238,"ha":238,"o":"m 97 -41 l 97 0 q 63 4 43 28 q 23 52 23 87 q 23 122 49 146 q 75 170 110 170 q 143 170 165 147 q 187 124 193 87 q 195 73 195 67 q 195 25 166 -8 q 138 -41 97 -41 z m 22 360 q 22 402 48 425 q 73 448 109 448 q 150 448 179 422 q 212 392 212 345 q 212 303 187 280 q 162 258 126 258 q 85 258 56 283 q 22 312 22 360 z"},"J":{"x_min":0,"x_max":450,"ha":450,"o":"m 52 197 q 71 172 95 163 q 120 153 155 153 q 201 153 231 188 q 262 222 262 270 l 262 835 l 412 835 l 412 245 q 412 198 398 165 q 385 132 352 92 q 318 52 262 24 q 211 -1 174 -1 q 166 -1 162 0 q 158 -2 132 4 q 108 9 97 13 q 78 20 68 26 q 58 33 52 37 z"},"V":{"x_min":0,"x_max":675,"ha":675,"o":"m 45 833 l 205 833 l 350 452 l 488 833 l 647 833 l 358 -12 z"},"\"":{"x_min":0,"x_max":560,"ha":560,"o":"m 152 835 l 322 835 l 144 630 l 54 630 z m 350 835 l 520 835 l 342 630 l 252 630 z"},"7":{"x_min":0,"x_max":620,"ha":620,"o":"m 355 670 l 85 670 l 85 830 l 590 830 l 225 5 l 50 5 z"},"S":{"x_min":0,"x_max":575,"ha":575,"o":"m 47 0 l 47 155 l 95 157 q 135 157 159 207 q 177 242 192 328 q 218 461 222 478 q 242 568 265 625 q 300 715 347 765 q 407 828 485 828 l 543 832 l 543 677 l 508 677 q 461 677 425 618 q 396 569 375 486 q 360 425 352 355 q 334 209 284 118 q 222 3 122 3 z"},"Z":{"x_min":0,"x_max":625,"ha":625,"o":"m 58 830 l 578 830 l 285 148 l 585 148 l 585 -3 l 53 -3 l 345 683 l 58 683 z"},"x":{"x_min":0,"x_max":670,"ha":670,"o":"m 49 2 l 238 334 l 48 646 l 236 646 l 328 495 l 438 650 l 607 650 l 418 338 l 617 4 l 435 2 l 327 181 l 219 2 z"},")":{"x_min":0,"x_max":270,"ha":270,"o":"m 195 675 q 218 618 228 557 q 238 495 238 433 q 238 389 234 348 q 229 307 220 265 q 206 198 178 138 q 148 71 100 5 q 97 5 78 1 q 70 -1 64 -1 q 61 -1 60 0 q 58 2 60 5 q 128 132 151 209 q 180 303 180 425 q 180 548 154 640 q 128 732 60 840 l 100 840 q 137 792 154 762 q 175 726 195 675 z"},"&":{"x_min":0,"x_max":720,"ha":720,"o":"m 695 0 l 510 0 l 480 50 q 444 18 407 7 q 369 -5 315 -5 q 182 -5 112 85 q 75 132 50 225 q 46 238 43 259 q 41 280 41 294 q 41 353 68 409 q 94 454 120 500 q 90 532 80 556 q 70 581 70 630 q 70 689 128 754 q 194 830 280 830 q 329 830 362 820 q 394 809 430 780 q 462 753 484 716 q 505 679 505 650 l 345 650 q 351 668 333 679 q 316 690 291 690 q 277 690 265 685 q 246 677 238 658 q 230 640 230 615 q 230 596 243 577 q 248 571 260 555 l 480 285 l 480 365 l 630 365 l 630 227 q 629 220 628 217 q 623 193 616 182 q 608 171 592 153 q 590 151 585 145 z m 380 175 l 225 375 q 205 353 198 330 q 190 308 190 275 q 190 234 215 200 q 248 155 310 155 q 332 155 347 159 q 362 163 380 175 z"},"v":{"x_min":0,"x_max":754,"ha":754,"o":"m 43 648 l 215 648 l 380 327 l 551 648 l 720 648 l 378 -12 z"},"O":{"x_min":0,"x_max":910,"ha":910,"o":"m 462 827 q 659 827 775 696 q 880 578 880 408 q 880 239 776 122 q 660 -9 462 -9 q 265 -9 150 122 q 46 240 46 411 q 46 580 149 697 q 264 827 462 827 z m 459 142 q 587 142 661 226 q 728 302 728 412 q 728 522 660 600 q 583 687 454 687 q 328 687 253 603 q 187 528 187 418 q 187 308 255 229 q 331 142 459 142 z"},"(":{"x_min":0,"x_max":305,"ha":305,"o":"m 215 835 l 255 835 q 189 729 162 635 q 135 541 135 420 q 135 299 164 204 q 188 128 255 0 q 257 -3 255 -5 q 254 -6 251 -6 q 249 -6 235 -3 q 222 0 215 0 q 99 125 75 255 q 61 333 61 396 q 61 463 75 528 q 89 592 120 670 q 139 718 161 756 q 180 789 215 835 z"},"C":{"x_min":0,"x_max":525,"ha":525,"o":"m 489 -2 q 479 -3 468 -3 q 456 -3 449 -3 q 280 -3 155 120 q 29 242 29 413 q 29 585 155 709 q 281 833 450 833 q 461 833 472 833 q 482 832 486 832 l 486 675 q 469 678 452 678 q 346 678 266 600 q 186 522 186 415 q 186 308 266 228 q 346 149 453 149 q 472 149 489 152 z"},"W":{"x_min":0,"x_max":940,"ha":940,"o":"m 57 833 l 210 833 l 210 218 q 210 184 236 162 q 262 140 298 140 q 339 140 368 159 q 402 181 402 217 l 402 833 l 560 833 l 560 220 q 560 186 588 165 q 617 145 655 145 q 697 145 725 162 q 758 183 758 218 l 758 833 l 902 833 l 902 237 q 902 137 830 68 q 758 -1 655 -1 q 598 -1 557 15 q 517 32 478 72 q 439 33 397 17 q 354 0 297 0 q 198 0 127 69 q 57 138 57 237 z"},"A":{"x_min":0,"x_max":625,"ha":625,"o":"m 574 -2 l 429 -2 l 429 268 l 191 268 l 191 -2 l 42 -2 l 42 563 l 42 576 q 42 672 120 750 q 198 828 303 828 q 411 828 492 752 q 574 677 574 578 z m 431 578 q 431 626 393 658 q 356 691 305 691 q 259 691 226 658 q 192 624 192 578 l 192 411 l 431 411 z"},"f":{"x_min":0,"x_max":315,"ha":315,"o":"m 38 -2 l 38 607 q 38 665 58 707 q 78 749 123 780 q 148 797 180 805 q 212 813 241 813 q 251 813 258 813 q 264 812 277 810 l 277 680 q 272 682 267 682 q 260 682 258 682 q 225 682 199 657 q 172 632 172 596 q 172 586 173 580 l 255 580 l 255 448 l 175 448 l 175 -2 z"},"Q":{"x_min":0,"x_max":870,"ha":870,"o":"m 39 440 q 39 602 156 718 q 272 832 437 832 q 602 832 721 719 q 839 606 839 443 q 839 292 748 183 q 657 74 509 50 l 509 -4 l 363 -4 l 363 50 q 218 76 128 184 q 39 292 39 440 z m 691 445 q 691 548 616 618 q 542 688 437 688 q 332 688 258 616 q 183 544 183 440 q 183 351 232 285 q 280 220 365 196 l 365 232 l 509 232 l 509 196 q 595 220 643 287 q 691 353 691 445 z"},"w":{"x_min":0,"x_max":970,"ha":970,"o":"m 35 649 l 192 649 l 192 244 q 192 202 222 172 q 251 142 293 142 q 338 142 370 173 q 402 204 402 248 l 402 649 l 559 649 l 560 247 q 560 202 592 172 q 625 142 670 142 q 715 142 746 173 q 777 204 777 249 l 777 649 l 928 649 l 928 266 q 928 156 854 77 q 781 -2 673 -2 q 609 -2 565 12 q 522 28 478 68 q 435 29 393 13 q 351 -2 292 -2 q 185 -2 110 75 q 35 152 35 261 z"},"-":{"x_min":0,"x_max":330,"ha":330,"o":"m 40 465 l 300 465 l 300 345 l 40 345 z"},"E":{"x_min":0,"x_max":540,"ha":540,"o":"m 499 681 l 294 681 q 271 681 255 676 q 238 672 226 658 q 204 635 204 604 l 204 486 l 498 486 l 498 341 l 202 341 l 202 238 q 202 211 205 199 q 208 187 219 172 q 241 146 274 146 l 499 146 l 499 -4 l 301 -4 q 239 -4 196 13 q 152 31 112 74 q 79 111 64 145 q 49 179 49 226 l 49 614 q 49 659 64 692 q 79 725 112 761 q 146 797 178 812 q 213 831 259 831 l 499 831 z"},"s":{"x_min":0,"x_max":480,"ha":480,"o":"m 39 -3 l 39 142 q 71 148 93 160 q 115 173 137 198 q 171 234 173 287 q 176 340 178 376 q 183 434 190 459 q 200 497 224 533 q 264 593 312 622 q 362 652 431 652 l 431 504 q 378 492 343 449 q 325 427 320 403 q 315 380 315 344 q 315 334 315 326 q 315 318 315 312 q 315 235 303 192 q 292 148 253 101 q 209 46 159 21 q 109 -3 39 -3 z"},"l":{"x_min":0,"x_max":230,"ha":230,"o":"m 43 833 l 185 833 l 185 0 l 43 0 z"},"8":{"x_min":0,"x_max":595,"ha":595,"o":"m 115 435 q 92 455 72 506 q 50 563 50 618 q 50 646 54 663 q 70 738 132 788 q 198 840 290 840 q 358 840 424 804 q 485 772 510 730 q 527 702 535 671 q 542 639 542 604 q 542 550 526 505 q 510 459 483 438 q 480 436 480 432 q 511 406 535 360 q 558 313 558 245 q 558 151 504 85 q 435 0 298 0 q 235 0 185 18 q 118 42 81 97 q 35 163 35 270 q 35 332 82 387 q 120 431 115 435 z m 189 599 q 189 558 220 528 q 250 498 293 498 q 335 498 365 529 q 394 559 394 602 q 394 644 364 674 q 333 703 290 703 q 248 703 219 673 q 189 642 189 599 z m 188 252 q 188 208 221 178 q 254 148 300 148 q 344 148 374 181 q 403 214 403 260 q 403 304 370 334 q 338 363 292 363 q 248 363 218 330 q 188 298 188 252 z"},"e":{"x_min":0,"x_max":737,"ha":737,"o":"m 552 372 q 533 439 482 477 q 431 514 360 514 q 282 514 224 458 q 166 402 166 325 q 166 312 167 305 q 176 222 236 175 q 289 132 362 132 q 404 132 441 147 q 478 162 503 191 l 598 92 q 548 41 492 18 q 436 -6 362 -6 q 225 -6 127 89 q 28 184 28 320 q 28 458 124 555 q 219 652 356 652 q 493 652 596 550 q 699 448 699 312 q 699 297 699 282 q 697 270 696 264 l 226 264 q 211 264 207 277 q 202 289 202 311 q 202 320 202 324 q 202 335 202 341 q 202 357 206 365 q 209 372 222 372 z"},"b":{"x_min":0,"x_max":690,"ha":690,"o":"m 342 628 q 473 628 566 535 q 659 442 659 311 q 659 182 571 91 q 482 0 355 0 q 222 0 127 83 q 28 169 28 296 l 28 833 l 159 833 l 159 300 q 159 228 215 178 q 272 128 345 128 q 352 128 355 128 q 360 128 372 129 q 438 139 480 194 q 522 248 522 318 q 522 337 518 359 q 504 422 452 458 q 407 489 344 489 q 301 489 262 473 q 223 457 199 427 l 199 588 q 239 610 269 619 q 299 628 342 628 z"},"%":{"x_min":0,"x_max":490,"ha":490,"o":"m 55 780 q 88 828 148 828 q 183 828 212 808 q 260 775 260 715 q 260 679 240 650 q 208 602 148 602 q 112 602 82 622 q 35 655 35 715 q 35 751 55 780 z m 250 175 q 283 222 344 222 q 378 222 408 202 q 455 169 455 108 q 455 74 435 45 q 402 -2 341 -2 q 307 -2 278 18 q 230 51 230 112 q 230 146 250 175 z m 365 835 l 410 835 l 100 0 l 55 0 z m 375 135 q 362 152 339 152 q 327 152 315 145 q 298 132 298 109 q 298 97 305 85 q 318 68 341 68 q 353 68 365 75 q 382 88 382 111 q 382 123 375 135 z m 180 740 q 168 758 143 758 q 130 758 120 750 q 102 738 102 713 q 102 700 110 690 q 122 672 147 672 q 160 672 170 680 q 188 692 188 717 q 188 730 180 740 z"},"m":{"x_min":0,"x_max":975,"ha":975,"o":"m 35 -1 l 35 396 q 35 502 109 579 q 182 655 288 655 q 351 655 395 640 q 438 626 482 587 q 524 624 567 640 q 610 657 668 657 q 774 657 852 588 q 929 518 929 415 l 929 -2 l 777 -2 l 777 400 q 777 446 744 478 q 711 510 665 510 q 622 510 592 478 q 562 447 562 402 l 562 -1 l 407 -1 l 407 402 q 407 448 373 480 q 340 512 292 512 q 248 512 218 480 q 188 448 188 402 l 188 -2 z"},",":{"x_min":0,"x_max":245,"ha":245,"o":"m 102 -41 l 102 0 q 68 4 48 28 q 28 52 28 87 q 28 122 54 146 q 80 170 115 170 q 148 170 170 147 q 192 124 198 87 q 200 73 200 67 q 200 25 171 -8 q 142 -41 102 -41 z"},"n":{"x_min":0,"x_max":675,"ha":675,"o":"m 38 -2 l 38 368 q 38 489 125 575 q 212 660 334 660 q 454 660 539 574 q 624 488 624 368 l 624 -2 l 473 -2 l 473 372 q 473 429 430 469 q 386 508 327 508 q 270 508 229 470 q 188 431 188 375 l 188 -2 z"},"h":{"x_min":0,"x_max":608,"ha":608,"o":"m 285 812 q 298 812 310 812 q 322 812 333 812 q 362 812 383 810 q 404 807 432 798 l 432 653 q 413 662 371 670 q 329 678 303 678 q 252 678 232 673 q 211 668 187 645 q 177 636 173 620 q 169 604 169 588 q 169 578 170 573 q 202 594 240 605 q 279 616 316 616 q 376 616 425 590 q 497 552 532 501 q 572 445 572 370 l 572 0 l 433 0 l 433 332 q 433 390 394 433 q 355 477 298 477 q 233 477 199 430 q 168 388 168 323 l 168 0 l 28 0 l 28 610 q 28 702 102 757 q 175 812 285 812 z"},"z":{"x_min":0,"x_max":571,"ha":571,"o":"m 49 651 l 543 651 l 292 155 l 531 155 l 531 -2 l 32 -2 l 293 512 l 49 512 z"},"B":{"x_min":0,"x_max":590,"ha":590,"o":"m 516 380 q 538 348 548 319 q 558 290 558 254 q 558 150 491 73 q 423 -3 323 -3 l 43 -3 l 43 834 l 328 834 q 408 834 465 776 q 521 718 521 637 q 521 604 516 584 q 511 564 495 537 q 482 514 453 490 q 432 472 423 463 l 445 448 q 476 427 488 415 q 499 404 516 380 z m 194 150 l 278 150 q 330 150 369 181 q 408 212 408 260 q 408 307 373 338 q 338 370 290 370 l 194 370 z m 192 517 l 279 517 q 313 517 337 543 q 361 569 361 605 q 361 638 341 663 q 322 688 291 688 l 192 688 z"},"K":{"x_min":0,"x_max":697,"ha":697,"o":"m 65 833 l 212 833 l 212 432 l 221 432 l 454 833 l 617 833 l 388 428 l 662 0 l 481 0 l 221 406 l 212 404 l 212 0 l 65 0 z"},"R":{"x_min":0,"x_max":625,"ha":625,"o":"m 57 838 l 322 838 q 431 838 506 750 q 572 672 572 585 q 572 493 524 427 q 477 361 390 335 l 595 2 l 413 2 l 210 317 l 210 2 l 57 2 z m 320 688 q 277 694 241 694 q 215 694 208 692 l 208 473 q 226 470 245 470 q 253 470 272 471 q 290 472 302 472 q 335 472 357 482 q 379 492 392 509 q 406 525 410 543 q 411 548 415 582 q 419 614 390 648 q 361 682 320 688 z"},"T":{"x_min":0,"x_max":580,"ha":580,"o":"m 53 835 l 547 835 l 547 690 l 375 690 l 375 -2 l 220 -2 l 220 688 l 53 688 z"},"P":{"x_min":0,"x_max":620,"ha":620,"o":"m 70 840 l 317 840 q 423 840 500 766 q 577 692 577 585 q 577 476 502 404 q 458 362 395 338 q 376 332 320 327 q 263 322 228 322 q 220 323 218 323 l 220 3 l 70 3 z m 220 475 l 325 475 q 368 475 397 506 q 427 538 427 582 q 427 626 397 658 q 368 690 323 690 l 220 690 z"},"t":{"x_min":0,"x_max":360,"ha":360,"o":"m 35 832 l 175 832 l 175 665 l 272 665 l 272 518 l 175 518 l 175 242 q 175 219 183 202 q 191 186 208 168 q 242 135 287 135 q 302 135 310 137 l 310 0 q 304 0 297 0 q 290 -1 288 -1 q 250 -1 214 11 q 170 25 117 62 q 84 84 61 132 q 35 184 35 238 z"},"M":{"x_min":0,"x_max":990,"ha":990,"o":"m 82 585 q 82 687 156 758 q 229 830 332 830 q 391 830 433 812 q 475 793 514 750 q 553 794 598 813 q 642 832 704 832 q 801 832 870 763 q 939 695 939 598 l 939 0 l 789 0 l 789 597 q 789 636 760 662 q 730 688 689 688 q 647 688 616 657 q 586 626 586 582 l 586 0 l 428 0 l 428 595 q 428 633 399 659 q 371 685 331 685 q 290 685 261 655 q 232 626 232 583 l 232 0 l 82 0 z"},"g":{"x_min":0,"x_max":725,"ha":725,"o":"m 488 30 q 428 1 353 1 q 234 1 138 71 q 38 144 25 254 q 21 290 21 316 q 21 470 115 563 q 206 653 347 653 q 482 653 580 566 q 679 478 679 348 l 681 22 q 681 -87 588 -159 q 500 -228 378 -228 q 369 -228 366 -228 q 328 -228 302 -225 q 278 -222 245 -212 l 245 -72 q 277 -82 300 -86 q 324 -89 359 -89 q 389 -89 422 -82 q 456 -75 469 -68 q 502 -52 516 -38 q 538 -14 538 22 l 538 339 q 538 414 477 463 q 416 512 335 512 q 263 512 211 457 q 158 402 158 329 q 158 317 161 302 q 173 226 232 182 q 285 141 355 141 q 438 141 488 196 z"},"j":{"x_min":0,"x_max":300,"ha":300,"o":"m 178 668 q 139 668 118 692 q 96 717 96 751 q 96 785 117 809 q 138 833 178 833 q 218 833 239 809 q 261 784 261 751 q 261 717 241 694 q 218 668 178 668 z m 108 643 l 250 643 l 250 12 q 250 -32 236 -63 q 222 -94 190 -125 q 169 -145 136 -155 q 103 -165 65 -165 q 22 -165 -11 -153 l -11 -42 q -2 -47 7 -48 q 16 -50 28 -50 q 46 -50 61 -45 q 76 -41 88 -33 q 99 -26 104 -18 q 108 -10 108 -1 z"},"i":{"x_min":0,"x_max":252,"ha":252,"o":"m 45 616 l 187 616 l 187 0 l 45 0 z m 118 657 q 78 657 55 682 q 32 708 32 743 q 32 778 55 802 q 77 826 118 826 q 154 826 177 799 q 197 775 197 741 q 197 708 175 682 q 154 657 118 657 z"},"y":{"x_min":0,"x_max":640,"ha":640,"o":"m 40 645 l 182 645 l 182 253 q 182 203 221 171 q 260 138 313 138 q 364 138 403 169 q 442 199 442 247 l 442 645 l 583 645 l 583 -22 q 583 -88 522 -139 q 469 -183 408 -192 q 380 -198 349 -200 q 318 -203 285 -203 q 255 -203 230 -200 q 204 -196 182 -187 l 182 -38 q 213 -56 242 -62 q 272 -68 313 -68 q 325 -68 332 -68 q 372 -68 389 -63 q 418 -55 430 -28 q 439 -10 439 8 q 439 18 435 35 q 399 16 366 9 q 333 2 288 2 q 230 2 190 19 q 149 37 108 80 q 72 118 56 157 q 40 196 40 247 z"},".":{"x_min":0,"x_max":245,"ha":245,"o":"m 28 110 q 28 152 53 175 q 78 198 114 198 q 155 198 184 172 q 218 142 218 95 q 218 53 192 30 q 167 8 131 8 q 90 8 61 33 q 28 62 28 110 z"},"p":{"x_min":0,"x_max":700,"ha":700,"o":"m 168 -180 l 33 -180 l 33 340 q 33 466 128 552 q 222 638 352 638 q 480 638 571 548 q 662 457 662 328 q 662 238 628 175 q 593 111 518 63 q 436 11 352 11 q 281 11 207 48 l 207 210 q 230 181 269 164 q 308 148 350 148 q 423 148 472 191 q 527 240 527 330 q 527 402 474 452 q 422 503 348 503 q 273 503 221 452 q 168 400 168 325 z"},"X":{"x_min":0,"x_max":670,"ha":670,"o":"m 50 832 l 218 832 l 335 597 l 452 833 l 620 833 l 422 413 l 623 -3 l 453 -3 l 335 232 l 220 0 l 57 0 l 245 413 z"},"*":{"x_min":0,"x_max":300,"ha":300,"o":"m 173 772 q 195 768 207 763 q 243 751 256 733 q 266 721 266 688 q 266 657 253 648 l 213 680 q 208 658 204 648 q 192 614 179 607 q 166 600 150 595 q 134 589 118 589 q 103 589 90 596 l 120 642 q 102 648 93 651 q 63 662 48 675 q 43 679 40 692 q 37 706 37 721 q 37 751 48 760 l 87 727 q 89 745 92 755 q 103 787 126 803 q 148 819 178 819 q 203 819 213 807 z"},"Y":{"x_min":0,"x_max":640,"ha":640,"o":"m 38 835 l 205 835 l 325 588 l 440 835 l 608 835 l 400 387 l 400 -3 l 247 -3 l 247 388 z"},"c":{"x_min":0,"x_max":490,"ha":490,"o":"m 442 161 l 442 12 q 402 2 360 2 q 222 2 126 99 q 29 197 29 335 q 29 471 126 565 q 223 659 361 659 q 398 659 438 648 l 438 502 q 404 518 363 518 q 288 518 231 468 q 171 415 171 332 q 171 248 231 194 q 287 143 363 143 q 405 143 442 161 z"},"!":{"x_min":0,"x_max":295,"ha":295,"o":"m 45 120 q 45 163 79 192 q 113 220 160 220 q 203 220 232 186 q 260 152 260 105 q 260 62 226 33 q 192 5 145 5 q 102 5 73 39 q 45 73 45 120 z m 220 835 l 220 270 l 80 270 l 80 835 z"},"/":{"x_min":0,"x_max":445,"ha":445,"o":"m 365 835 l 410 835 l 100 0 l 55 0 z"},"6":{"x_min":0,"x_max":645,"ha":645,"o":"m 295 860 l 415 790 l 227 415 q 205 373 194 339 q 183 304 183 273 q 183 233 203 203 q 223 173 270 150 q 297 138 326 138 q 368 138 405 159 q 441 181 455 216 q 469 251 469 289 q 469 326 458 357 q 446 388 421 409 q 397 431 343 442 q 326 446 295 450 l 365 595 q 390 586 405 580 q 497 542 535 500 q 577 453 597 406 q 618 359 618 304 q 618 272 610 235 q 592 144 522 76 q 438 -8 317 -8 q 218 -8 139 57 q 95 92 55 155 q 24 202 24 276 q 24 315 35 350 q 58 422 102 510 q 133 572 193 678 q 272 817 295 860 z"},"r":{"x_min":0,"x_max":425,"ha":425,"o":"m 197 -2 l 41 -1 l 41 362 q 41 446 71 507 q 102 568 168 612 q 209 640 245 652 q 281 664 323 664 q 334 664 349 663 q 364 662 383 658 l 383 511 q 362 517 340 517 q 297 517 257 488 q 228 467 212 440 q 197 413 197 378 z"},"2":{"x_min":0,"x_max":620,"ha":620,"o":"m 350 150 l 570 150 l 570 0 l 65 0 l 425 522 q 438 541 438 564 q 438 607 406 647 q 374 688 335 695 q 327 696 320 697 q 313 698 304 698 q 267 698 236 681 q 206 663 190 630 q 181 612 177 593 q 172 574 172 558 q 172 518 192 481 q 199 469 213 452 l 125 365 q 109 381 100 390 q 70 421 60 440 q 25 502 25 565 q 25 632 65 697 q 98 749 121 772 q 151 802 195 820 q 238 837 283 837 l 323 835 q 398 828 449 799 q 500 770 540 710 q 566 670 576 634 q 587 598 587 548 q 587 512 570 476 q 568 471 538 420 q 491 336 441 269 q 395 209 350 150 z"},"9":{"x_min":0,"x_max":650,"ha":650,"o":"m 343 390 l 260 262 q 218 281 195 293 q 123 332 95 370 q 67 407 49 447 q 24 503 24 558 q 24 606 44 652 q 63 699 110 745 q 135 770 190 792 q 259 819 330 819 q 387 819 443 800 q 499 780 550 735 q 591 699 609 654 q 625 616 625 569 q 625 522 608 472 q 595 438 580 415 q 532 342 477 262 q 399 147 379 118 q 341 63 285 -15 l 170 75 q 171 75 220 145 q 248 184 335 310 q 417 428 465 500 q 472 512 478 531 q 484 549 484 567 q 484 617 451 648 q 409 688 327 688 q 308 688 275 684 q 242 681 215 657 q 188 633 175 585 q 169 562 169 542 q 169 462 256 418 q 284 404 343 390 z"}," ":{"x_min":0,"x_max":462,"ha":462,"o":""},"I":{"x_min":0,"x_max":245,"ha":245,"o":"m 50 828 l 207 828 l 207 -8 l 50 -8 z"},"H":{"x_min":0,"x_max":645,"ha":645,"o":"m 64 835 l 224 835 l 224 492 l 442 492 l 442 835 l 598 835 l 598 0 l 442 0 l 442 338 l 224 338 l 224 0 l 64 0 z"},"4":{"x_min":0,"x_max":610,"ha":610,"o":"m 295 350 l 385 350 l 385 205 l 30 205 l 425 835 l 570 835 l 570 0 l 425 0 l 425 560 z"},"D":{"x_min":0,"x_max":670,"ha":670,"o":"m 52 834 l 204 834 q 382 834 510 714 q 638 594 638 419 q 638 248 522 123 q 406 -2 238 -2 l 52 -2 z m 204 158 q 204 153 221 153 q 262 153 315 174 q 386 202 428 254 q 482 322 482 421 q 482 531 404 599 q 313 679 208 679 l 204 678 z"},"0":{"x_min":0,"x_max":930,"ha":930,"o":"m 462 827 q 659 827 775 696 q 880 578 880 408 q 880 239 776 122 q 660 -9 462 -9 q 265 -9 150 122 q 46 240 46 411 q 46 580 149 697 q 264 827 462 827 z m 460 133 q 588 133 662 217 q 729 292 729 402 q 729 513 661 591 q 584 678 455 678 q 328 678 254 594 q 188 519 188 409 q 188 298 256 220 q 332 133 460 133 z"},"F":{"x_min":0,"x_max":530,"ha":530,"o":"m 498 686 l 304 686 q 282 686 273 683 q 264 681 244 666 q 219 647 219 616 l 219 486 l 494 486 l 494 341 l 221 341 l 221 -2 l 66 -2 l 66 584 q 66 645 77 680 q 88 716 123 753 q 158 790 198 810 q 244 834 296 834 l 498 834 z"},"k":{"x_min":0,"x_max":538,"ha":538,"o":"m 35 -3 l 35 827 l 172 827 l 172 332 l 183 332 l 343 605 l 508 605 l 335 308 l 507 0 l 348 0 l 183 277 l 173 277 l 173 -3 z"},"u":{"x_min":0,"x_max":667,"ha":667,"o":"m 38 648 l 184 648 l 184 275 q 184 222 228 187 q 272 152 331 152 q 388 152 431 185 q 474 218 474 270 l 474 648 l 627 648 l 627 277 q 627 162 528 78 q 435 -2 328 -2 q 208 -2 123 77 q 38 157 38 272 z"},"U":{"x_min":0,"x_max":665,"ha":665,"o":"m 72 835 l 227 835 l 227 265 q 227 218 261 185 q 296 152 343 152 q 395 152 433 185 q 472 218 472 267 l 472 833 l 622 833 l 622 265 q 622 153 538 77 q 453 0 338 0 q 228 0 150 79 q 72 158 72 270 z"},"o":{"x_min":0,"x_max":705,"ha":705,"o":"m 347 -1 q 193 -1 103 100 q 22 191 22 323 q 22 458 105 551 q 198 655 354 655 q 508 655 598 554 q 678 463 678 331 q 678 197 596 103 q 503 -1 347 -1 z m 361 519 q 270 519 217 459 q 168 405 168 327 q 168 251 214 199 q 266 142 354 142 q 445 142 498 202 q 547 256 547 334 q 547 410 501 462 q 449 519 361 519 z"},"N":{"x_min":0,"x_max":660,"ha":660,"o":"m 65 0 l 65 570 q 65 679 145 755 q 226 832 337 832 q 451 832 535 757 q 618 682 618 572 l 618 0 l 467 0 l 467 563 q 467 615 429 651 q 392 687 340 687 q 286 687 249 647 q 212 608 212 552 l 212 0 z"},"G":{"x_min":0,"x_max":605,"ha":605,"o":"m 568 644 q 561 658 534 670 q 507 682 465 682 q 426 682 374 665 q 308 642 268 604 q 239 577 225 554 q 210 531 198 492 q 192 471 189 453 q 187 435 187 411 q 187 384 191 363 q 196 342 207 312 q 214 294 222 279 q 230 263 242 248 q 251 235 262 224 q 278 208 302 192 q 321 180 337 172 q 353 165 370 161 q 388 158 398 157 q 408 156 417 156 l 417 291 l 342 291 l 342 429 l 567 429 l 567 -1 l 407 -1 q 362 6 328 17 q 293 28 250 51 q 215 69 196 82 q 173 98 148 124 q 130 142 117 160 q 104 177 92 198 q 59 252 46 302 q 33 353 33 421 q 33 512 65 580 q 97 647 167 714 q 228 772 301 804 q 375 836 440 836 q 492 836 536 821 q 550 816 568 806 z"},"q":{"x_min":0,"x_max":705,"ha":705,"o":"m 521 323 q 521 398 468 450 q 416 502 341 502 q 268 502 215 451 q 162 400 162 328 q 162 238 218 189 q 266 146 339 146 q 382 146 420 162 q 458 178 482 208 l 482 47 q 408 9 338 9 q 253 9 171 62 q 28 152 28 327 q 28 455 118 546 q 209 637 338 637 q 467 637 561 550 q 656 464 656 338 l 656 -182 l 521 -182 z"},"d":{"x_min":0,"x_max":710,"ha":710,"o":"m 528 822 l 663 822 l 663 308 q 663 181 568 92 q 472 4 341 4 q 212 4 120 96 q 28 188 28 318 q 28 437 101 520 q 175 604 293 623 q 326 628 354 628 q 417 628 487 595 l 487 428 q 463 458 425 475 q 386 492 342 492 q 269 492 221 450 q 166 402 166 317 q 166 243 218 191 q 271 138 345 138 q 418 138 473 185 q 528 231 528 300 z"},"1":{"x_min":0,"x_max":250,"ha":250,"o":"m 200 835 l 200 0 l 50 0 l 50 835 z"},"5":{"x_min":0,"x_max":517,"ha":517,"o":"m 50 417 l 50 835 l 420 835 l 420 685 l 185 685 l 185 560 q 238 560 267 553 q 328 539 386 491 q 440 446 468 382 q 490 332 490 287 q 490 215 462 159 q 434 103 375 55 q 340 27 292 13 q 245 0 196 0 q 148 0 96 22 q 79 28 53 43 l 53 195 q 82 175 99 165 q 153 135 195 135 q 252 135 294 178 q 336 221 336 278 q 336 289 335 295 q 328 344 292 378 q 257 411 198 420 q 181 423 151 423 q 121 423 82 420 q 70 419 50 417 z"}}}
